<svg width="32" height="32" viewBox="0 0 32 32" fill="none" xmlns="http://www.w3.org/2000/svg">
<path d="M30 16C30 23.732 23.732 30 16 30C8.26801 30 2 23.732 2 16C2 8.26801 8.26801 2 16 2C23.732 2 30 8.26801 30 16Z" fill="white"/>
<path fill-rule="evenodd" clip-rule="evenodd" d="M16 28C19.0733 28 21.8768 26.8447 23.9997 24.9447C23.9659 21.2097 20.51 18 16 18C11.49 18 8.0341 21.2097 8.00025 24.9447C10.1232 26.8447 12.9267 28 16 28ZM19.5009 16.5699C22.5895 17.6104 24.9993 19.9901 25.7531 22.9928C27.1673 21.0238 28 18.6092 28 16C28 9.37258 22.6274 4 16 4C9.37258 4 4 9.37258 4 16C4 18.6092 4.83272 21.0238 6.24689 22.9928C7.00074 19.9901 9.41049 17.6104 12.4991 16.5699C11.574 15.6625 11 14.3983 11 13C11 10.2386 13.2386 8 16 8C18.7614 8 21 10.2386 21 13C21 14.3983 20.426 15.6625 19.5009 16.5699ZM16 30C23.732 30 30 23.732 30 16C30 8.26801 23.732 2 16 2C8.26801 2 2 8.26801 2 16C2 23.732 8.26801 30 16 30ZM16 16C17.6569 16 19 14.6569 19 13C19 11.3431 17.6569 10 16 10C14.3431 10 13 11.3431 13 13C13 14.6569 14.3431 16 16 16Z" fill="#FE7E03"/>
</svg>
