<svg width="32" height="32" viewBox="0 0 32 32" fill="none" xmlns="http://www.w3.org/2000/svg">
<path fill-rule="evenodd" clip-rule="evenodd" d="M23.9093 8.33702L8.221 8.34842L13.2974 12.7261C14.0473 13.3727 14.5554 14.2548 14.7386 15.2279L15.9792 21.8175L23.9093 8.33702ZM16.2607 25.6499C16.0472 26.0108 15.6406 26.2039 15.229 26.1378C14.8122 26.0717 14.4972 25.7668 14.4209 25.3552L12.5905 15.6323C12.4989 15.1458 12.2449 14.7047 11.8699 14.3814L4.36332 7.90809C4.27693 7.83185 4.20578 7.74546 4.14987 7.65398C4.00757 7.40495 3.98216 7.10002 4.08889 6.81542C4.23627 6.42409 4.60218 6.1649 5.024 6.1649L26.0083 6.14966C26.364 6.14966 26.6943 6.33262 26.8671 6.63755C27.045 6.94248 27.045 7.31856 26.8621 7.62857L16.2607 25.6499Z" fill="#FE7E03"/>
</svg>
