<svg width="23" height="21" viewBox="0 0 23 21" fill="none" xmlns="http://www.w3.org/2000/svg">
<path fill-rule="evenodd" clip-rule="evenodd" d="M19.9094 3.08702L4.22106 3.09842L9.29746 7.47605C10.0474 8.12273 10.5555 9.00483 10.7387 9.97795L11.9792 16.5675L19.9094 3.08702ZM12.2607 20.3999C12.0473 20.7608 11.6407 20.9539 11.229 20.8878C10.8123 20.8217 10.4972 20.5168 10.421 20.1052L8.59059 10.3823C8.49899 9.89578 8.24492 9.45473 7.86997 9.1314L0.363383 2.65809C0.276986 2.58185 0.205836 2.49546 0.149932 2.40398C0.00763179 2.15495 -0.017779 1.85002 0.0889464 1.56542C0.236329 1.17409 0.602245 0.914905 1.02406 0.914905L22.0083 0.899658C22.3641 0.899658 22.6944 1.08262 22.8672 1.38755C23.0451 1.69248 23.0451 2.06856 22.8621 2.37857L12.2607 20.3999Z" fill="black"/>
</svg>
