<svg width="32" height="33" viewBox="0 0 32 33" fill="none" xmlns="http://www.w3.org/2000/svg">
<path fill-rule="evenodd" clip-rule="evenodd" d="M10.8138 22.1793C11.3228 22.5911 11.598 23.2261 11.5505 23.8791L11.5302 24.1591L12.7226 23.7602C13.0937 23.636 13.493 23.6234 13.8712 23.724C14.5472 23.9038 15.25 23.9986 15.9947 23.9986C20.4843 23.9986 24 20.5063 24 16.3743C24 12.2396 20.4922 8.75 16.0053 8.75C11.5064 8.75 8 12.2409 8 16.3743C8 18.6913 9.07428 20.7718 10.8138 22.1793ZM9.38494 26.0841C9.35291 26.5221 9.78003 26.8639 10.1965 26.7143L13.3572 25.6568C14.2007 25.8811 15.0763 25.9986 15.9947 25.9986C21.5152 25.9986 26 21.6832 26 16.3743C26 11.0655 21.5259 6.75 16.0053 6.75C10.4741 6.75 6 11.0655 6 16.3743C6 19.3332 7.37747 21.9716 9.55579 23.7341L9.38494 26.0841Z" fill="black"/>
</svg>
