<svg width="32" height="33" viewBox="0 0 32 33" fill="none" xmlns="http://www.w3.org/2000/svg">
<path fill-rule="evenodd" clip-rule="evenodd" d="M26.1468 17.0656C24.7935 19.5727 19.399 23.711 17.1419 25.3746C16.8047 25.6202 16.4114 25.75 15.9993 25.75C15.5872 25.75 15.1939 25.6202 14.8614 25.3746C12.6043 23.711 7.20978 19.5727 5.85646 17.0656C4.08639 13.7893 5.14937 9.58146 8.22125 7.6861C9.21399 7.07439 10.3379 6.75 11.4804 6.75C13.067 6.75 14.5648 7.34894 15.7341 8.42451C15.8245 8.50766 15.9129 8.59365 15.9993 8.68244C16.0857 8.59365 16.1741 8.50765 16.2645 8.4245C17.4338 7.34894 18.9316 6.75 20.5181 6.75C21.6607 6.75 22.7846 7.07439 23.7773 7.6861C26.8492 9.58146 27.9122 13.7893 26.1468 17.0656Z" fill="#FE7E03"/>
</svg>
