<svg width="32" height="32" viewBox="0 0 32 32" fill="none" xmlns="http://www.w3.org/2000/svg">
<path d="M2 6C2 3.79086 3.79086 2 6 2H26C28.2091 2 30 3.79086 30 6V26C30 28.2091 28.2091 30 26 30H6C3.79086 30 2 28.2091 2 26V6Z" fill="white"/>
<path fill-rule="evenodd" clip-rule="evenodd" d="M26 4H6C4.89543 4 4 4.89543 4 6V26C4 27.1046 4.89543 28 6 28H26C27.1046 28 28 27.1046 28 26V6C28 4.89543 27.1046 4 26 4ZM6 2C3.79086 2 2 3.79086 2 6V26C2 28.2091 3.79086 30 6 30H26C28.2091 30 30 28.2091 30 26V6C30 3.79086 28.2091 2 26 2H6Z" fill="#FE7E03"/>
<path fill-rule="evenodd" clip-rule="evenodd" d="M17 11.4512C17 10.8989 16.5523 10.4512 16 10.4512C15.4477 10.4512 15 10.8989 15 11.4512V15H11.4519C10.8996 15 10.4519 15.4477 10.4519 16C10.4519 16.5523 10.8996 17 11.4519 17H15V20.5475C15 21.0997 15.4477 21.5475 16 21.5475C16.5523 21.5475 17 21.0997 17 20.5475V17H20.5482C21.1005 17 21.5482 16.5523 21.5482 16C21.5482 15.4477 21.1005 15 20.5482 15H17V11.4512Z" fill="#FE7E03"/>
</svg>
