<svg width="80" height="80" viewBox="0 0 80 80" fill="none" xmlns="http://www.w3.org/2000/svg">
<path d="M40 80C61.8824 80 80 61.8431 80 40C80 18.1176 61.8431 0 39.9608 0C18.1176 0 0 18.1176 0 40C0 61.8431 18.1569 80 40 80ZM40 53.3725C28.2353 53.3725 19.1373 57.5686 15.1765 62.2745C9.88235 56.3922 6.70588 48.5882 6.70588 40C6.70588 21.4902 21.451 6.66667 39.9608 6.66667C58.4706 6.66667 73.2941 21.4902 73.3333 40C73.3725 48.5882 70.1569 56.3922 64.8627 62.3137C60.902 57.6078 51.8039 53.3725 40 53.3725ZM40 46.7059C47.5294 46.7843 53.451 40.3529 53.451 31.9216C53.451 24 47.5294 17.4118 40 17.4118C32.4706 17.4118 26.5098 24 26.549 31.9216C26.5882 40.3529 32.4706 46.6274 40 46.7059Z" fill="#C7C7CC"/>
</svg>
